<svg xmlns="http://www.w3.org/2000/svg" viewBox="0 0 100 100">
  <defs>
    <linearGradient id="grad" x1="0%" y1="0%" x2="100%" y2="100%">
      <stop offset="0%" style="stop-color:#f09ba9;stop-opacity:1" />
      <stop offset="100%" style="stop-color:#ffb7c5;stop-opacity:1" />
    </linearGradient>
  </defs>
  <circle cx="50" cy="50" r="48" fill="url(#grad)" />
  <path d="M50 2 C23.5 2 2 23.5 2 50 C2 76.5 23.5 98 50 98 C76.5 98 98 76.5 98 50 C98 23.5 76.5 2 50 2 Z M50 94 C27.9 94 10 76.1 10 54 L90 54 C90 76.1 72.1 94 50 94 Z M10 46 C10 23.9 27.9 6 50 6 C72.1 6 90 23.9 90 46 L10 46 Z M50 10 C41.2 10 33.5 18.5 30.8 30 L69.2 30 C66.5 18.5 58.8 10 50 10 Z M50 90 C58.8 90 66.5 81.5 69.2 70 L30.8 70 C33.5 81.5 41.2 90 50 90 Z M28.5 38 C27.5 42 27 46 27 50 C27 54 27.5 58 28.5 62 L71.5 62 C72.5 58 73 54 73 50 C73 46 72.5 42 71.5 38 L28.5 38 Z" fill="white" opacity="0.8"/>
</svg>
